<svg height="512" viewBox="0 0 128 128" width="512" xmlns="http://www.w3.org/2000/svg"><g><path d="m89.688 88.697h-58.292l-10.521 11.241v-60.795h68.813z" fill="#fd4459"/><path d="m104.291 30.658a7.108 7.108 0 0 0 -9.955 1.4l-23.047 30.619 11.358 8.551 23.053-30.615a7.109 7.109 0 0 0 -1.409-9.955z" fill="#fccf23"/><path d="m68.833 77.759 2.456-15.082 11.358 8.551z" fill="#fabc91"/><g fill="#e7f8fc"><path d="m67.082 47.055h-35.544a1.75 1.75 0 0 0 0 3.5h35.544a1.75 1.75 0 0 0 0-3.5z"/><path d="m62.248 56.909h-30.71a1.75 1.75 0 0 0 0 3.5h30.71a1.75 1.75 0 0 0 0-3.5z"/><path d="m60.115 66.764h-28.577a1.75 1.75 0 1 0 0 3.5h28.577a1.75 1.75 0 0 0 0-3.5z"/><path d="m57.178 76.618h-25.64a1.75 1.75 0 1 0 0 3.5h25.64a1.75 1.75 0 0 0 0-3.5z"/></g></g></svg>