<svg id="Capa_1" enable-background="new 0 0 512 512" height="512" viewBox="0 0 512 512" width="512" xmlns="http://www.w3.org/2000/svg"><path d="m47.025 150.744c7.858 0 14.228-6.37 14.228-14.228v-59.261h-28.457v59.261c0 7.857 6.371 14.228 14.229 14.228z" fill="#ebebeb"/><path d="m61.253 77.256v59.255c0 7.858-6.367 14.235-14.225 14.235-2.592 0-5.019-.689-7.118-1.903 4.248-2.469 7.118-7.066 7.118-12.332v-59.255z" fill="#d3d1d1"/><path d="m58.23 391.261c0-34.441 27.92-62.361 62.361-62.361h247.251c64.897 0 117.507-52.61 117.507-117.507 0-64.897-52.61-117.507-117.507-117.507h-237.278c-16.08 0-29.115 13.035-29.115 29.115 0 16.08 13.035 29.115 29.115 29.115h237.279c32.738 0 59.277 26.539 59.277 59.277 0 32.738-26.539 59.277-59.277 59.277h-254.704c-62.485 0-113.139 50.654-113.139 113.139v14.903c0 62.485 50.654 113.139 113.139 113.139h256.791c16.08 0 29.115-13.035 29.115-29.115 0-16.08-13.035-29.115-29.115-29.115h-249.339c-34.441.001-62.361-27.919-62.361-62.36z" fill="#5a5a5a"/><circle cx="47.025" cy="46.106" fill="#fb2b3a" r="45.96"/><path d="m92.984 46.101c0 25.385-20.571 45.966-45.956 45.966-14.04 0-26.609-6.295-35.033-16.21 6.377 3.343 13.628 5.235 21.312 5.235 25.385 0 45.966-20.571 45.966-45.956 0-11.345-4.114-21.733-10.934-29.756 14.657 7.684 24.645 23.04 24.645 40.721z" fill="#e41f2d"/><path d="m511.996 351.798c0-33.817-27.137-61.296-60.823-61.847-34.204-.56-62.682 27.259-62.888 61.466-.141 23.471 12.794 43.927 31.945 54.527 3.88 2.147 7.102 5.31 9.5 9.04l13.903 21.626c3.045 4.737 9.969 4.737 13.014 0l13.903-21.627c2.403-3.737 5.637-6.898 9.524-9.052 19.034-10.547 31.922-30.832 31.922-54.133z" fill="#fb2b3a"/><path d="m512 351.8c0 23.295-12.896 43.58-31.924 54.126-3.885 2.159-7.12 5.316-9.523 9.054l-13.902 21.63c-3.053 4.735-9.974 4.735-13.018 0l-3.33-5.186c1.761-.468 3.391-1.561 4.51-3.296l13.902-21.63c2.402-3.738 5.637-6.903 9.523-9.054 19.037-10.546 31.924-30.831 31.924-54.135 0-18.091-7.771-34.37-20.155-45.688 19.071 10.53 31.993 30.85 31.993 54.179z" fill="#e41f2d"/><circle cx="450.14" cy="351.798" fill="#ebebeb" r="30.028"/><circle cx="450.142" cy="488.812" fill="#fac600" r="23.04"/><path d="m473.18 488.814c0 12.723-10.316 23.04-23.04 23.04-9.473 0-17.609-5.719-21.147-13.886 2.571.998 5.369 1.543 8.29 1.543 12.723 0 23.04-10.316 23.04-23.04 0-3.261-.679-6.357-1.893-9.154 8.63 3.322 14.75 11.694 14.75 21.497z" fill="#e0ae10"/><circle cx="361.938" cy="211.257" fill="#9c9c9c" r="29.314"/><path d="m391.255 211.257c0 16.189-13.124 29.314-29.314 29.314-11.119 0-20.797-6.192-25.765-15.315 3.497 1.471 7.334 2.284 11.366 2.284 16.19 0 29.314-13.124 29.314-29.314 0-5.071-1.286-9.843-3.559-13.999 10.543 4.433 17.958 14.862 17.958 27.03z" fill="#838383"/><circle cx="127.633" cy="390.339" fill="#9c9c9c" r="29.314"/><path d="m156.95 390.339c0 16.19-13.124 29.314-29.314 29.314-11.119 0-20.797-6.192-25.765-15.315 3.497 1.471 7.334 2.283 11.366 2.283 16.19 0 29.314-13.124 29.314-29.314 0-5.071-1.286-9.843-3.559-13.999 10.542 4.434 17.958 14.863 17.958 27.031z" fill="#838383"/></svg>