<?xml version="1.0" encoding="iso-8859-1"?>
<!-- Generator: Adobe Illustrator 19.0.0, SVG Export Plug-In . SVG Version: 6.00 Build 0)  -->
<svg version="1.1" id="Layer_1" xmlns="http://www.w3.org/2000/svg" xmlns:xlink="http://www.w3.org/1999/xlink" x="0px" y="0px"
	 viewBox="0 0 512.001 512.001" style="enable-background:new 0 0 512.001 512.001;" xml:space="preserve">
<path style="fill:#CAD1D8;" d="M488,16H24C10.745,16,0,26.745,0,40v432c0,13.254,10.745,24,24,24h464c13.254,0,24-10.745,24-24V40
	C512,26.745,501.255,16,488,16z"/>
<g>
	<circle style="fill:#9BA7AF;" cx="56.002" cy="47.995" r="7.998"/>
	<circle style="fill:#9BA7AF;" cx="88.002" cy="47.995" r="7.998"/>
</g>
<path style="fill:#FFFFFF;" d="M24,80h464c4.418,0,8,3.582,8,8v384c0,4.418-3.582,8-8,8H24c-4.418,0-8-3.582-8-8V88
	C16,83.582,19.582,80,24,80z"/>
<path style="fill:#E2E5E7;" d="M120,40h368c4.418,0,8,3.582,8,8l0,0c0,4.418-3.582,8-8,8H120c-4.418,0-8-3.582-8-8l0,0
	C112,43.582,115.582,40,120,40z"/>
<circle style="fill:#9BA7AF;" cx="24.002" cy="47.995" r="7.998"/>
<g>
	<path style="fill:#CAD1D8;" d="M152.001,144h208c4.418,0,8,3.582,8,8.001l0,0c0,4.418-3.582,8-8,8h-208
		c-4.418,0-8.001-3.582-8.001-8l0,0C144,147.582,147.582,144,152.001,144z"/>
	<path style="fill:#CAD1D8;" d="M192,176h128c4.418,0,8,3.582,8,8.001l0,0c0,4.418-3.582,8-8,8H192c-4.418,0-8.001-3.582-8.001-8
		l0,0C184.001,179.582,187.582,176,192,176z"/>
	<path style="fill:#CAD1D8;" d="M383.04,240.64c-17.835-3.198-35.592,5.992-43.28,22.4c-2.679,5.468-8.231,8.942-14.32,8.96h-18.88
		c-6.155-0.018-11.753-3.563-14.4-9.12c-9.63-19.883-33.553-28.194-53.436-18.564c-8.101,3.923-14.642,10.464-18.564,18.564
		c-2.696,5.662-8.45,9.227-14.72,9.12h-18.88c-6.089-0.018-11.641-3.492-14.32-8.96c-9.41-19.987-33.242-28.56-53.229-19.149
		c-19.987,9.41-28.56,33.242-19.149,53.229c9.41,19.987,33.242,28.56,53.229,19.149c8.415-3.962,15.186-10.734,19.149-19.149
		c2.633-5.531,8.194-9.072,14.32-9.12h18.88c6.155,0.018,11.753,3.563,14.4,9.12c9.63,19.883,33.553,28.194,53.436,18.564
		c8.101-3.923,14.641-10.464,18.564-18.564c2.696-5.662,8.45-9.227,14.72-9.12h18.88c6.155,0.018,11.753,3.563,14.4,9.12
		c9.446,19.97,33.293,28.5,53.263,19.054c19.97-9.446,28.5-33.293,19.054-53.263C406.624,251.215,395.776,242.917,383.04,240.64z"/>
</g>
<g>
	<path style="fill:#595A66;" d="M257.84,279.52c6.32-4.96,6.32-14.88-3.04-14.88c-3.276,0.105-6.282,1.848-8,4.64
		c-1.326,2.01-4.03,2.566-6.04,1.24c-2.01-1.326-2.566-4.03-1.24-6.04c2.964-5.604,8.956-8.93,15.28-8.48
		c16,0,22.88,16.88,9.76,29.6c-4.141,3.638-8.614,6.879-13.36,9.68c3.04,0,6.72-0.4,9.76-0.4h8c2.452,0.329,4.172,2.585,3.843,5.038
		c-0.269,2-1.843,3.574-3.843,3.843h-26.88c-2.233,0.309-4.291-1.251-4.6-3.484c-0.2-1.454,0.395-2.903,1.56-3.796
		C245.28,289.92,251.12,285.6,257.84,279.52z"/>
	<path style="fill:#595A66;" d="M377.68,264.639h-11.76c-2.386-0.001-4.319-1.936-4.318-4.322c0.001-2.384,1.934-4.317,4.318-4.318
		h21.12c2.518-0.026,4.581,1.994,4.607,4.513c0.014,1.336-0.559,2.611-1.567,3.487l-11.44,10.72
		c7.469-0.797,14.169,4.612,14.965,12.082c0.043,0.398,0.067,0.799,0.074,1.199c0,8.48-6,16-18.64,16
		c-5.678,0.261-11.069-2.51-14.16-7.28c-1.519-1.953-1.167-4.768,0.786-6.287c1.953-1.519,4.768-1.167,6.287,0.786
		c0.171,0.219,0.32,0.453,0.448,0.701c1.947,2.389,4.923,3.699,8,3.52c3.952,0.443,7.514-2.402,7.957-6.354
		c0.035-0.308,0.049-0.616,0.044-0.926c0-7.2-8.8-6.081-13.52-5.6c-2.209,1.149-4.931,0.289-6.08-1.92
		c-1.149-2.209-0.289-4.931,1.92-6.081l0,0L377.68,264.639z"/>
	<path style="fill:#595A66;" d="M134.88,266.96l-4.16,1.68c-2.32,0.751-4.808-0.52-5.56-2.84c-0.751-2.32,0.52-4.808,2.84-5.56l0,0
		l9.76-3.6c3.2-1.36,6.081,0,6.081,4.801v38.64c0,5.12-9.12,5.28-9.12,0v-33.12h0.16V266.96z"/>
</g>
<path style="fill:#E2E5E7;" d="M200.001,376h112c13.254,0,24,10.745,24,24l0,0c0,13.254-10.745,24-24,24h-112
	c-13.254,0-24.001-10.745-24.001-24l0,0C176,386.746,186.745,376,200.001,376z"/>
<path style="fill:#3CB54A;" d="M200.001,368h112c13.254,0,24,10.745,24,24l0,0c0,13.254-10.745,24-24,24h-112
	c-13.254,0-24.001-10.745-24.001-24l0,0C176,378.745,186.745,368,200.001,368z"/>
<g>
	<circle style="fill:#0E9347;" cx="256" cy="391.998" r="7.998"/>
	<circle style="fill:#0E9347;" cx="288" cy="391.998" r="7.998"/>
	<circle style="fill:#0E9347;" cx="224" cy="391.998" r="7.998"/>
</g>
<g>
</g>
<g>
</g>
<g>
</g>
<g>
</g>
<g>
</g>
<g>
</g>
<g>
</g>
<g>
</g>
<g>
</g>
<g>
</g>
<g>
</g>
<g>
</g>
<g>
</g>
<g>
</g>
<g>
</g>
</svg>
