<?xml version="1.0"?>
<svg xmlns="http://www.w3.org/2000/svg" xmlns:xlink="http://www.w3.org/1999/xlink" version="1.1" id="Capa_1" x="0px" y="0px" viewBox="0 0 384 384" style="enable-background:new 0 0 384 384;" xml:space="preserve" width="512px" height="512px" class="hovered-paths"><g><g>
	<g>
		<path d="M341.333,0H42.667C19.093,0,0,19.093,0,42.667v298.667C0,364.907,19.093,384,42.667,384h298.667    C364.907,384,384,364.907,384,341.333V42.667C384,19.093,364.907,0,341.333,0z M256,160c0,17.707-14.293,32-32,32    c17.707,0,32,14.293,32,32v32c0,23.573-19.093,42.667-42.667,42.667H128V256h85.333v-42.667h-42.667v-42.667h42.667V128H128    V85.333h85.333C236.907,85.333,256,104.427,256,128V160z" data-original="#000000" class="hovered-path active-path" data-old_color="#000000" fill="#636E72"/>
	</g>
</g><script xmlns="" class="hovered-path active-path"/></g> </svg>
